<svg width="329" height="171" viewBox="0 0 329 171" fill="none" xmlns="http://www.w3.org/2000/svg">
<path d="M164.5 0.5C186.034 0.499999 207.358 4.90876 227.254 13.4756C247.15 22.0424 265.229 34.6001 280.459 50.4316C295.213 65.7684 307.012 83.8872 315.229 103.812L316.014 105.746C323.05 123.404 327.171 142.146 328.228 161.182L328.32 163.025C328.505 167.14 325.148 170.5 321 170.5H272.876C268.872 170.5 265.598 167.346 265.117 163.358L265.08 162.971C264.291 152.299 261.933 141.801 258.077 131.847L257.7 130.885C252.632 118.166 245.203 106.608 235.837 96.8721C226.471 87.1359 215.35 79.412 203.11 74.1416C190.87 68.8712 177.75 66.1582 164.5 66.1582C151.25 66.1582 138.13 68.8712 125.89 74.1416C113.65 79.412 102.529 87.1359 93.1631 96.8721C84.0895 106.304 76.8344 117.446 71.7822 129.696L71.2998 130.885C67.3473 140.804 64.8918 151.278 64.002 161.938L63.9199 162.971C63.6116 167.139 60.2574 170.5 56.124 170.5H8C3.98114 170.5 0.705076 167.346 0.672852 163.408L0.679688 163.025C1.53789 143.971 5.46623 125.186 12.3145 107.458L12.9863 105.746C20.9721 85.705 32.5603 67.4392 47.123 51.9238L48.541 50.4316C63.7707 34.6001 81.8501 22.0424 101.746 13.4756C121.642 4.90876 142.966 0.500001 164.5 0.5Z" fill="#BAFC5D" stroke="white"/>
</svg>
