<svg width="298" height="140" viewBox="0 0 298 140" fill="none" xmlns="http://www.w3.org/2000/svg">
<path d="M10.1488 114.285L25.2792 119.22L24.9554 123.762L14.6342 125.615L24.5988 128.766L24.275 133.308L8.57993 136.295L8.86618 132.279L20.2462 130.732L9.21968 127.319L9.51375 123.194L20.9235 121.23L9.861 118.322L10.1488 114.285Z" fill="black"/>
<path d="M22.862 103.119C23.2071 103.188 23.5615 103.281 23.9251 103.399L21.9394 111.678C22.7008 111.771 23.3325 111.652 23.8343 111.319C24.3252 110.969 24.6442 110.487 24.7913 109.874C25.0102 108.961 24.7742 108.249 24.0832 107.736L25.017 103.843C25.76 104.201 26.3846 104.707 26.8908 105.362C27.4004 106.003 27.7408 106.751 27.9122 107.608C28.0835 108.464 28.0529 109.377 27.8203 110.347C27.5398 111.517 27.0385 112.507 26.3162 113.319C25.594 114.131 24.704 114.7 23.6461 115.026C22.5883 115.351 21.4338 115.389 20.1828 115.138C18.9317 114.887 17.8987 114.418 17.0837 113.731C16.2721 113.03 15.7242 112.173 15.4398 111.159C15.1554 110.145 15.1552 109.046 15.4391 107.863C15.7162 106.707 16.2069 105.73 16.9114 104.929C17.6158 104.129 18.4808 103.57 19.5065 103.253C20.5356 102.921 21.6541 102.876 22.862 103.119ZM20.9934 106.668C20.3607 106.541 19.8061 106.654 19.3296 107.006C18.8531 107.359 18.5379 107.857 18.3839 108.498C18.2369 109.112 18.2918 109.668 18.5486 110.168C18.8089 110.654 19.2578 111.013 19.8954 111.246L20.9934 106.668Z" fill="black"/>
<path d="M15.7527 94.1788L31.3642 98.796L30.1103 102.343L14.4988 97.7257L15.7527 94.1788Z" fill="black"/>
<path d="M27.1536 92.9173C25.9676 92.4464 25.0416 91.8032 24.3756 90.9877C23.716 90.1589 23.3456 89.2324 23.2646 88.2082C23.1899 87.1708 23.4104 86.1088 23.926 85.0223C24.5862 83.631 25.5113 82.6204 26.7012 81.9905C27.8973 81.3474 29.2462 81.1506 30.7477 81.4003L29.0311 85.0177C28.0141 84.9761 27.298 85.3926 26.883 86.2671C26.5875 86.8899 26.6039 87.4869 26.9322 88.0581C27.2469 88.624 27.8677 89.0909 28.7947 89.4589C29.7216 89.8269 30.5253 89.9255 31.2057 89.7548C31.8725 89.5786 32.3537 89.1791 32.6492 88.5563C33.0642 87.6818 32.9078 86.919 32.18 86.2679L33.8966 82.6505C35.0942 83.4724 35.8514 84.5052 36.1684 85.7491C36.4853 86.9929 36.3168 88.3039 35.6629 89.6819C35.1473 90.7685 34.4497 91.641 33.5702 92.2996C32.6969 92.945 31.7041 93.3303 30.5917 93.4555C29.4856 93.5675 28.3395 93.3881 27.1536 92.9173Z" fill="black"/>
<path d="M42.762 77.6549C42.1113 78.6664 41.2981 79.4575 40.3223 80.0282C39.3545 80.5867 38.3001 80.8743 37.1591 80.8912C36.026 80.8957 34.8977 80.5956 33.7741 79.9908C32.6635 79.393 31.8392 78.6338 31.3013 77.7133C30.7505 76.7858 30.5109 75.7933 30.5826 74.7359C30.6544 73.6786 31.0156 72.6442 31.6663 71.6327C32.317 70.6213 33.1303 69.8302 34.106 69.2595C35.0818 68.6887 36.1466 68.3983 37.3005 68.3884C38.4415 68.3716 39.5674 68.662 40.678 69.2599C41.7887 69.8577 42.6155 70.6265 43.1584 71.5664C43.6963 72.4869 43.9254 73.482 43.8457 74.5517C43.774 75.6091 43.4128 76.6435 42.762 77.6549ZM39.895 76.1117C40.2838 75.5073 40.3807 74.8703 40.1856 74.2007C39.9984 73.5187 39.4721 72.9449 38.6069 72.4791C37.7416 72.0134 36.9416 71.8651 36.2068 72.0342C35.48 72.191 34.9222 72.5716 34.5334 73.176C34.1366 73.7927 34.0397 74.4297 34.2428 75.087C34.4329 75.7373 34.9671 76.2988 35.8453 76.7715C36.7106 77.2373 37.5027 77.3979 38.2215 77.2535C38.9483 77.0967 39.5061 76.7161 39.895 76.1117Z" fill="black"/>
<path d="M48.3218 51.2573C49.3419 50.1232 50.5202 49.5014 51.8568 49.3918C53.2032 49.2713 54.5327 49.7049 55.8452 50.6927L61.5759 55.0051L59.0748 57.7858L53.7484 53.7776C53.1156 53.3013 52.487 53.0935 51.8627 53.154C51.2365 53.1947 50.6782 53.4877 50.1878 54.0329C49.6974 54.5782 49.4858 55.1412 49.5529 55.722C49.6181 56.283 49.9671 56.8017 50.6 57.2779L55.9263 61.2861L53.4252 64.0668L48.0988 60.0586C47.466 59.5823 46.8375 59.3745 46.2132 59.435C45.587 59.4757 45.0286 59.7687 44.5382 60.3139C44.0478 60.8592 43.8362 61.4222 43.9033 62.003C43.9685 62.564 44.3176 63.0827 44.9504 63.5589L50.2767 67.5671L47.7609 70.3641L37.952 62.9827L40.4678 60.1857L41.6983 61.1117C41.5432 60.5195 41.5544 59.9062 41.732 59.2718C41.8978 58.6286 42.2406 58.0181 42.7605 57.4401C43.3784 56.7532 44.0859 56.2616 44.8829 55.9654C45.6897 55.6582 46.5234 55.5725 47.384 55.7081C47.1294 54.9862 47.0774 54.2248 47.2279 53.4238C47.3785 52.6228 47.7431 51.9007 48.3218 51.2573Z" fill="black"/>
<path d="M68.0048 42.6497C68.2506 42.9016 68.4897 43.178 68.7219 43.4787L62.1265 48.8628C62.7045 49.3716 63.3017 49.6385 63.918 49.6634C64.5354 49.6686 65.0884 49.4718 65.5769 49.073C66.3041 48.4794 66.5331 47.7832 66.264 46.9845L69.3658 44.4524C69.7701 45.1596 69.9874 45.9157 70.0177 46.7208C70.0593 47.5166 69.8957 48.3008 69.5269 49.0733C69.1581 49.8459 68.5874 50.5475 67.8148 51.1782C66.8832 51.9387 65.8745 52.4321 64.7889 52.6583C63.7032 52.8845 62.623 52.8234 61.5482 52.4749C60.4734 52.1265 59.4904 51.4956 58.5993 50.5824C57.7082 49.6691 57.1286 48.709 56.8604 47.702C56.6037 46.6858 56.6596 45.6972 57.0283 44.7362C57.3969 43.7752 58.0527 42.9097 58.9957 42.1399C59.916 41.3887 60.9082 40.8993 61.9722 40.6719C63.0363 40.4445 64.0898 40.4991 65.1327 40.8359C66.187 41.1633 67.1444 41.7679 68.0048 42.6497ZM64.331 44.3758C63.8803 43.9139 63.3514 43.6856 62.7442 43.6909C62.1371 43.6963 61.5778 43.9076 61.0666 44.325C60.578 44.7238 60.2913 45.1935 60.2066 45.7342C60.1332 46.2656 60.2923 46.8052 60.6839 47.3531L64.331 44.3758Z" fill="black"/>
<path d="M82.3955 23.7276L84.0645 26.2373L80.4887 28.2268L87.3719 38.577L84.0844 40.4061L77.2013 30.0558L73.6255 32.0454L71.9565 29.5357L82.3955 23.7276Z" fill="black"/>
<path d="M99.3082 33.4841C98.1966 33.9432 97.0798 34.1273 95.9579 34.0365C94.8496 33.9401 93.8268 33.5708 92.8897 32.9287C91.9662 32.281 91.222 31.385 90.6572 30.2408C90.0989 29.1098 89.8663 28.0104 89.9595 26.9429C90.0462 25.8621 90.4232 24.9068 91.0907 24.077C91.7582 23.2472 92.6478 22.6028 93.7594 22.1437C94.871 21.6847 95.9878 21.5005 97.1097 21.5914C98.2316 21.6822 99.2644 22.0552 100.208 22.7105C101.145 23.3526 101.893 24.2392 102.451 25.3703C103.009 26.5013 103.238 27.61 103.138 28.6963C103.045 29.7639 102.658 30.7154 101.977 31.5508C101.309 32.3806 100.42 33.0251 99.3082 33.4841ZM97.867 30.5645C98.5313 30.2901 98.977 29.8211 99.2042 29.1573C99.445 28.4879 99.3479 27.7126 98.9129 26.8314C98.478 25.9503 97.9132 25.3681 97.2186 25.085C96.5375 24.7963 95.8648 24.7891 95.2006 25.0634C94.5228 25.3433 94.077 25.8124 93.8634 26.4706C93.6433 27.1156 93.7539 27.8853 94.1954 28.7796C94.6303 29.6608 95.1815 30.2485 95.849 30.5429C96.5301 30.8316 97.2028 30.8388 97.867 30.5645Z" fill="black"/>
<path d="M122.526 10.7522L123.303 13.6646L119.309 14.555L122.509 26.5659L118.837 27.3845L115.637 15.3737L111.643 16.2642L110.867 13.3518L122.526 10.7522Z" fill="black"/>
<path d="M135.918 12.1967C137.318 12.0503 138.5 12.3985 139.462 13.2414C140.423 14.0698 141.004 15.2917 141.206 16.9071L142.096 24.0237L138.376 24.4128L137.549 17.7983C137.447 16.9833 137.157 16.3723 136.677 15.9654C136.198 15.5585 135.601 15.3924 134.886 15.4672C134.171 15.5419 133.631 15.827 133.264 16.3224C132.897 16.8178 132.765 17.473 132.867 18.288L133.694 24.9025L129.952 25.2938L127.933 9.13958L131.674 8.74825L132.376 14.3586C132.688 13.7804 133.152 13.2969 133.768 12.9081C134.385 12.5193 135.101 12.2822 135.918 12.1967Z" fill="black"/>
<path d="M157.621 17.7973C157.616 18.1493 157.59 18.5157 157.541 18.8966L149.028 18.8079C149.077 19.5711 149.311 20.1603 149.732 20.5753C150.167 20.9759 150.7 21.1794 151.33 21.186C152.269 21.1958 152.926 20.8066 153.303 20.0185L157.307 20.0602C157.091 20.8647 156.708 21.5867 156.158 22.2263C155.622 22.8661 154.948 23.3651 154.137 23.7234C153.326 24.0816 152.421 24.2555 151.424 24.2451C150.222 24.2326 149.154 23.9648 148.222 23.4418C147.29 22.9187 146.565 22.1778 146.049 21.219C145.533 20.2603 145.283 19.1429 145.299 17.867C145.315 16.5911 145.585 15.4792 146.111 14.5313C146.65 13.5835 147.393 12.8579 148.338 12.3544C149.283 11.8509 150.364 11.6054 151.581 11.6181C152.769 11.6305 153.822 11.8908 154.74 12.3991C155.658 12.9073 156.367 13.6261 156.869 14.5553C157.386 15.4848 157.636 16.5654 157.621 17.7973ZM153.783 16.7673C153.791 16.122 153.578 15.6065 153.143 15.2206C152.707 14.8347 152.16 14.6383 151.5 14.6314C150.869 14.6249 150.332 14.8026 149.887 15.1647C149.457 15.5269 149.187 16.0448 149.076 16.7183L153.783 16.7673Z" fill="black"/>
<path d="M177.266 11.2052C178.866 11.505 180.194 12.082 181.25 12.9359C182.305 13.7899 183.029 14.8501 183.421 16.1166C183.831 17.3716 183.869 18.7432 183.536 20.2317C183.206 21.7058 182.581 22.9532 181.661 23.9739C180.756 24.9973 179.627 25.7104 178.275 26.1132C176.938 26.5187 175.476 26.5729 173.891 26.2757L168.204 25.21L171.579 10.1394L177.266 11.2052ZM174.364 23.0539C175.763 23.3159 176.936 23.1406 177.884 22.528C178.833 21.9153 179.462 20.9149 179.773 19.5266C180.084 18.1383 179.937 16.9848 179.332 16.0661C178.726 15.1474 177.725 14.557 176.326 14.2949L174.575 13.9667L172.613 22.7256L174.364 23.0539Z" fill="black"/>
<path d="M189.894 30.3683C188.748 30.0055 187.804 29.4381 187.062 28.6659C186.335 27.8982 185.874 26.9845 185.68 25.9246C185.5 24.8692 185.635 23.7448 186.087 22.5513C186.533 21.3715 187.19 20.4198 188.059 19.6962C188.933 18.9589 189.922 18.4962 191.026 18.308C192.131 18.1199 193.256 18.2072 194.403 18.57C195.55 18.9328 196.494 19.5002 197.235 20.2724C197.976 21.0445 198.441 21.9673 198.63 23.0409C198.825 24.1007 198.699 25.2205 198.252 26.4003C197.806 27.5801 197.139 28.5364 196.252 29.2693C195.383 29.9929 194.389 30.4465 193.271 30.6303C192.166 30.8184 191.041 30.7311 189.894 30.3683ZM191.046 27.3228C191.731 27.5396 192.405 27.4763 193.067 27.1328C193.743 26.7938 194.255 26.1647 194.603 25.2456C194.95 24.3265 194.98 23.5447 194.691 22.9005C194.416 22.2606 193.936 21.8323 193.251 21.6155C192.552 21.3943 191.878 21.4576 191.23 21.8055C190.587 22.1396 190.089 22.7731 189.736 23.706C189.389 24.6251 189.345 25.4024 189.606 26.0379C189.881 26.6777 190.361 27.106 191.046 27.3228Z" fill="black"/>
<path d="M209.333 24.2119C210.121 24.5699 210.724 25.037 211.144 25.6133C211.577 26.1957 211.817 26.811 211.864 27.4593L212.694 25.932L216.119 27.4884L210.27 38.2565C209.731 39.2489 209.037 40.0506 208.189 40.6615C207.348 41.2915 206.377 41.6537 205.277 41.7483C204.19 41.849 203.025 41.6171 201.784 41.0528C200.128 40.3004 198.992 39.3104 198.377 38.0828C197.755 36.868 197.721 35.5829 198.274 34.2273L201.659 35.7655C201.542 36.2265 201.62 36.664 201.895 37.078C202.162 37.5049 202.59 37.8519 203.177 38.1188C203.885 38.4404 204.554 38.4955 205.185 38.2841C205.823 38.0916 206.376 37.5636 206.845 36.7001L207.674 35.1729C207.068 35.5238 206.383 35.7269 205.62 35.7821C204.865 35.8244 204.093 35.6666 203.305 35.3086C202.384 34.8899 201.672 34.2851 201.169 33.4943C200.674 32.6905 200.433 31.7696 200.447 30.7316C200.482 29.6869 200.8 28.6103 201.402 27.5019C202.004 26.3935 202.747 25.5175 203.629 24.874C204.525 24.2365 205.469 23.8621 206.462 23.7508C207.454 23.6395 208.411 23.7932 209.333 24.2119ZM209.764 31.3257C210.212 30.5009 210.325 29.7408 210.104 29.0455C209.895 28.3563 209.451 27.8569 208.77 27.5475C208.089 27.238 207.378 27.2125 206.639 27.4709C205.919 27.7225 205.336 28.2607 204.887 29.0856C204.439 29.9104 204.316 30.6739 204.517 31.376C204.739 32.0713 205.19 32.5737 205.871 32.8832C206.552 33.1926 207.256 33.2151 207.982 32.9506C208.722 32.6922 209.316 32.1506 209.764 31.3257Z" fill="black"/>
<path d="M223.167 27.82L226.495 29.7557L220.999 33.3578L218.812 32.0858L223.167 27.82Z" fill="black"/>
<path d="M225.804 47.8689C224.933 47.2465 224.276 46.5528 223.834 45.7879C223.392 45.0231 223.179 44.2602 223.195 43.4992C223.22 42.7271 223.466 42.0229 223.933 41.3866L226.958 43.5482C226.717 43.8972 226.654 44.2744 226.769 44.6798C226.884 45.0852 227.151 45.4371 227.568 45.7355C227.95 46.0084 228.3 46.1504 228.617 46.1615C228.955 46.17 229.22 46.0628 229.411 45.8397C229.639 45.572 229.657 45.2703 229.463 44.9344C229.279 44.5874 228.92 44.0971 228.385 43.4635C227.802 42.7957 227.344 42.2076 227.009 41.6993C226.684 41.1797 226.506 40.6123 226.474 39.997C226.452 39.3705 226.712 38.7394 227.255 38.1038C227.712 37.5684 228.282 37.1942 228.964 36.9809C229.667 36.765 230.432 36.7463 231.26 36.9247C232.1 37.1116 232.943 37.5077 233.79 38.1131C235.043 39.0085 235.78 40.0019 236.001 41.0935C236.233 42.1936 235.994 43.2615 235.282 44.2974L232.454 42.2765C232.682 41.9189 232.746 41.5516 232.646 41.1744C232.557 40.8057 232.304 40.4722 231.886 40.1737C231.528 39.9179 231.197 39.7887 230.891 39.7861C230.596 39.7724 230.353 39.877 230.162 40.1001C229.933 40.3677 229.911 40.6751 230.095 41.0221C230.291 41.3776 230.654 41.8525 231.184 42.4468C231.772 43.1539 232.222 43.763 232.535 44.274C232.857 44.7738 233.025 45.3425 233.038 45.9802C233.072 46.6152 232.819 47.2603 232.278 47.9157C231.811 48.4622 231.225 48.8335 230.52 49.0297C229.835 49.2233 229.078 49.221 228.248 49.023C227.43 48.8335 226.615 48.4488 225.804 47.8689Z" fill="black"/>
<path d="M257.524 55.0572L255.199 56.9755L250.781 52.4957L248.27 54.568L251.576 57.92L249.319 59.7823L246.013 56.4303L241.193 60.4068L238.552 57.7284L250.464 47.899L257.524 55.0572Z" fill="black"/>
<path d="M252.22 62.8937C253.28 62.2098 254.354 61.7951 255.442 61.6498C256.538 61.5161 257.553 61.6353 258.486 62.0073C259.419 62.3792 260.194 62.9659 260.813 63.7672C261.341 64.4524 261.655 65.1459 261.753 65.8477C261.86 66.5612 261.781 67.2124 261.516 67.8012L262.976 66.8588L265.274 69.8376L254.959 76.4941L252.661 73.5153L254.122 72.5729C253.417 72.5928 252.715 72.4368 252.016 72.1051C251.327 71.785 250.717 71.2823 250.189 70.5972C249.58 69.8075 249.24 68.9483 249.17 68.0196C249.112 67.083 249.335 66.1645 249.841 65.2644C250.367 64.3679 251.161 63.5776 252.22 62.8937ZM257.819 70.1871C258.607 69.6781 259.068 69.0674 259.202 68.3551C259.344 67.6544 259.187 67.0079 258.73 66.4156C258.273 65.8234 257.656 65.4653 256.877 65.3415C256.12 65.2213 255.347 65.4158 254.558 65.9247C253.77 66.4337 253.298 67.0425 253.143 67.7512C253.01 68.4635 253.171 69.1158 253.628 69.7081C254.085 70.3004 254.698 70.6526 255.468 70.7648C256.246 70.8886 257.03 70.6961 257.819 70.1871Z" fill="black"/>
<path d="M259.112 83.5209C258.571 82.5972 258.253 81.694 258.16 80.8113C258.066 79.9286 258.18 79.1396 258.502 78.4444C258.837 77.7427 259.345 77.1923 260.026 76.793L261.906 80.0008C261.546 80.226 261.337 80.5485 261.278 80.9684C261.219 81.3884 261.319 81.8198 261.579 82.2626C261.816 82.6676 262.077 82.9388 262.361 83.0765C262.665 83.2203 262.949 83.2277 263.213 83.0985C263.529 82.9436 263.667 82.6724 263.626 82.285C263.599 81.8912 263.47 81.2948 263.239 80.4958C262.978 79.6462 262.798 78.9198 262.699 78.3168C262.613 77.7074 262.68 77.1126 262.9 76.5326C263.132 75.9461 263.624 75.4688 264.375 75.1008C265.007 74.7909 265.676 74.6745 266.382 74.7517C267.109 74.8351 267.813 75.1252 268.495 75.6221C269.183 76.1316 269.791 76.8356 270.317 77.734C271.096 79.0626 271.365 80.2745 271.125 81.3694C270.893 82.4771 270.244 83.3655 269.178 84.0346L267.42 81.0356C267.773 80.7978 267.979 80.4848 268.04 80.0966C268.108 79.7211 268.012 79.3119 267.753 78.8691C267.53 78.4894 267.281 78.2371 267.004 78.1122C266.74 77.9807 266.477 77.9796 266.214 78.1087C265.898 78.2637 265.753 78.5381 265.781 78.9319C265.815 79.3384 265.954 79.922 266.196 80.6828C266.445 81.5706 266.609 82.313 266.688 82.9098C266.779 83.5001 266.702 84.0918 266.456 84.6847C266.231 85.2839 265.74 85.777 264.984 86.1641C264.339 86.4805 263.655 86.5874 262.934 86.4849C262.234 86.3886 261.546 86.0825 260.87 85.5666C260.202 85.0633 259.616 84.3814 259.112 83.5209Z" fill="black"/>
<path d="M277.968 93.391C278.517 94.6875 278.515 95.8841 277.962 96.981C277.423 98.0729 276.386 98.8908 274.852 99.4347L268.092 101.83L266.633 98.3867L272.916 96.1599C273.69 95.8856 274.209 95.4766 274.471 94.9331C274.734 94.3896 274.725 93.7869 274.445 93.1252C274.164 92.4635 273.727 92.0127 273.133 91.773C272.538 91.5332 271.854 91.5505 271.08 91.8249L264.797 94.0517L263.329 90.5876L278.674 85.1493L280.141 88.6133L274.812 90.502C275.472 90.6719 276.083 91.0068 276.645 91.5067C277.206 92.0066 277.647 92.6347 277.968 93.391Z" fill="black"/>
<path d="M282.602 103.259C282.413 102.626 282.442 102.06 282.69 101.56C282.956 101.07 283.367 100.756 283.922 100.617C284.491 100.475 285.019 100.554 285.507 100.855C286.013 101.166 286.361 101.638 286.55 102.27C286.735 102.888 286.694 103.442 286.428 103.932C286.18 104.432 285.772 104.753 285.202 104.896C284.648 105.035 284.117 104.948 283.611 104.637C283.123 104.336 282.787 103.877 282.602 103.259ZM281.9 105.36L269.992 108.342L268.913 104.738L280.822 101.756L281.9 105.36Z" fill="black"/>
<path d="M272.105 118.324C271.886 117.141 271.943 116.035 272.274 115.004C272.608 113.988 273.195 113.134 274.036 112.44C274.88 111.76 275.932 111.323 277.193 111.128C278.439 110.935 279.584 111.04 280.628 111.442C281.686 111.842 282.556 112.479 283.24 113.352C283.923 114.226 284.374 115.254 284.593 116.436C284.811 117.619 284.755 118.725 284.424 119.756C284.093 120.786 283.499 121.649 282.644 122.345C281.803 123.039 280.76 123.482 279.513 123.675C278.267 123.868 277.113 123.757 276.052 123.343C275.009 122.941 274.144 122.296 273.458 121.408C272.775 120.534 272.324 119.506 272.105 118.324ZM275.323 117.826C275.454 118.533 275.825 119.091 276.438 119.5C277.053 119.924 277.846 120.061 278.817 119.911C279.788 119.761 280.489 119.4 280.92 118.829C281.354 118.272 281.506 117.641 281.375 116.934C281.242 116.213 280.87 115.655 280.26 115.26C279.665 114.862 278.874 114.74 277.889 114.892C276.918 115.042 276.214 115.389 275.778 115.931C275.344 116.488 275.192 117.119 275.323 117.826Z" fill="black"/>
<path d="M286.279 133.956C286.341 135.392 285.921 136.551 285.02 137.435C284.134 138.333 282.878 138.811 281.251 138.87L274.083 139.129L273.922 135.393L280.584 135.152C281.404 135.122 282.033 134.887 282.469 134.445C282.905 134.004 283.107 133.424 283.076 132.706C283.045 131.988 282.793 131.425 282.321 131.017C281.848 130.608 281.201 130.419 280.38 130.448L273.719 130.689L273.556 126.931L285.824 126.487L285.987 130.246L284.36 130.305C284.919 130.666 285.366 131.163 285.701 131.797C286.052 132.43 286.244 133.15 286.279 133.956Z" fill="black"/>
</svg>
