<svg width="390" height="844" viewBox="0 0 390 844" fill="none" xmlns="http://www.w3.org/2000/svg">
<g clip-path="url(#clip0_15_375)">
<rect width="390" height="844" rx="34" fill="#064BB5"/>
<path d="M260.732 -10.9246C262.569 -12.0127 264.689 -12.6321 266.87 -12.433C268.909 -12.2467 271.029 -11.3423 273.042 -9.38757L273.443 -8.98277L273.443 -8.98187C275.7 -6.62505 276.395 -3.62866 276.129 -0.383735C275.862 2.86886 274.63 6.34572 273.064 9.60782C271.5 12.8664 269.614 15.8895 268.056 18.2307C267.277 19.4011 266.582 20.3986 266.05 21.1723C265.784 21.5582 265.557 21.8904 265.382 22.159C265.298 22.288 265.222 22.4065 265.159 22.5126C265.025 22.4718 264.873 22.4321 264.707 22.3935C264.383 22.318 263.979 22.2385 263.512 22.1528C263.045 22.0669 262.508 21.974 261.917 21.8709C261.326 21.7677 260.678 21.6539 259.987 21.5275C257.218 21.0215 253.745 20.307 250.328 19.2004C246.908 18.0925 243.567 16.599 241.049 14.5479C238.617 12.5665 236.968 10.0785 236.733 6.9146L236.715 6.60628C236.582 3.59678 237.388 1.29048 238.712 -0.408405C240.038 -2.11104 241.904 -3.22716 243.927 -3.81868C245.95 -4.41047 248.117 -4.47314 250.024 -4.08029C251.936 -3.68642 253.553 -2.84294 254.516 -1.65849L255.128 -1.94066C254.876 -3.31667 255.332 -5.00604 256.346 -6.64926C257.356 -8.28563 258.895 -9.83586 260.732 -10.9246ZM246.473 -1.92372C244.694 -1.39302 243.017 -0.41485 241.803 1.07721C240.66 2.48041 239.941 4.32075 239.919 6.62649L239.923 7.09146C239.99 9.95905 241.455 12.1447 243.594 13.8094C245.724 15.4679 248.542 16.6257 251.381 17.4583C254.223 18.2921 257.113 18.8078 259.401 19.1683C260.556 19.3503 261.532 19.4893 262.305 19.614C262.688 19.6757 263.009 19.7319 263.261 19.7855C263.521 19.8409 263.681 19.8884 263.76 19.9247L264.066 20.0654L264.217 19.7637C264.256 19.6868 264.346 19.5462 264.494 19.332C264.639 19.1234 264.827 18.8614 265.053 18.5504C265.504 17.9299 266.099 17.1193 266.765 16.1698C268.097 14.2711 269.722 11.8067 271.083 9.15048C272.442 6.49808 273.55 3.63114 273.83 0.931499C274.102 -1.69212 273.593 -4.18552 271.743 -6.15119L271.56 -6.33981C269.749 -8.16743 267.763 -9.0006 265.812 -9.12783C263.866 -9.25461 261.981 -8.6785 260.361 -7.73286C258.742 -6.78756 257.372 -5.46467 256.454 -4.07134C255.749 -3.00132 255.294 -1.86186 255.221 -0.804603C254.328 -1.5237 253.13 -2.00683 251.816 -2.24283C250.145 -2.54291 248.251 -2.45414 246.473 -1.92372Z" stroke="white" stroke-opacity="0.45" stroke-width="0.696761"/>
<mask id="path-3-inside-1_15_375" fill="white">
<path d="M267.859 -1.7506C262.7 -7.12978 256.036 -0.89498 256.692 2.61135C254.222 -0.352326 245.437 0.34914 245.796 7.61467C246.161 15.786 261.592 16.6537 262.926 17.2988C263.47 16.0838 273.429 4.06001 267.859 -1.7506Z"/>
</mask>
<path d="M256.692 2.61135L256.156 3.05734L257.868 5.11205L257.376 2.48327L256.692 2.61135ZM245.796 7.61467L246.492 7.58357L246.492 7.58028L245.796 7.61467ZM262.926 17.2988L262.623 17.926L263.269 18.2385L263.562 17.5835L262.926 17.2988ZM268.362 -2.23292C266.967 -3.68704 265.431 -4.39228 263.906 -4.52558C262.392 -4.65789 260.952 -4.22173 259.739 -3.50067C258.527 -2.78078 257.513 -1.76075 256.841 -0.671802C256.178 0.402922 255.799 1.62888 256.007 2.73943L257.376 2.48327C257.256 1.84066 257.464 0.972389 258.027 0.0600335C258.581 -0.838102 259.433 -1.69801 260.451 -2.30271C261.466 -2.90624 262.618 -3.23933 263.785 -3.13735C264.94 -3.03634 266.171 -2.50374 267.356 -1.26828L268.362 -2.23292ZM257.227 2.16536C256.477 1.26486 255.3 0.695946 254.036 0.438376C252.762 0.178805 251.33 0.219306 249.989 0.607844C248.647 0.996998 247.369 1.74439 246.45 2.92259C245.525 4.10881 245.003 5.68353 245.1 7.64906L246.492 7.58028C246.41 5.91304 246.851 4.67551 247.549 3.77939C248.254 2.87525 249.26 2.27022 250.377 1.94627C251.497 1.62171 252.701 1.58844 253.758 1.80383C254.824 2.02122 255.672 2.47601 256.156 3.05734L257.227 2.16536ZM245.1 7.64577C245.202 9.93677 246.37 11.6937 247.998 13.024C249.613 14.3431 251.711 15.2705 253.783 15.9419C255.862 16.6156 257.963 17.0465 259.613 17.348C260.486 17.5075 261.108 17.6096 261.696 17.7178C261.968 17.768 262.189 17.812 262.358 17.8518C262.443 17.8716 262.508 17.889 262.558 17.9039C262.61 17.92 262.627 17.9282 262.623 17.926L263.229 16.6715C263.07 16.5944 262.864 16.5391 262.677 16.4952C262.474 16.4474 262.226 16.3986 261.948 16.3474C261.435 16.2528 260.631 16.1174 259.863 15.9772C258.233 15.6792 256.204 15.2615 254.213 14.6162C252.214 13.9686 250.303 13.1067 248.88 11.9447C247.471 10.794 246.572 9.37822 246.492 7.58357L245.1 7.64577ZM263.562 17.5835C263.562 17.5842 263.564 17.5781 263.572 17.5638C263.579 17.5499 263.59 17.5317 263.604 17.5084C263.631 17.4614 263.669 17.4017 263.717 17.328C263.813 17.1801 263.94 16.9926 264.097 16.7643C264.408 16.3116 264.824 15.7128 265.29 15.0126C266.221 13.6118 267.363 11.7827 268.314 9.7986C269.261 7.82168 270.04 5.6475 270.209 3.56258C270.379 1.46219 269.93 -0.597028 268.362 -2.23275L267.356 -1.26844C268.573 0.00113629 268.968 1.62387 268.82 3.45016C268.671 5.2919 267.971 7.2891 267.057 9.19633C266.146 11.0964 265.045 12.8642 264.129 14.2412C263.672 14.9298 263.264 15.5151 262.948 15.9752C262.792 16.2033 262.655 16.4043 262.548 16.5689C262.449 16.7213 262.349 16.8819 262.29 17.014L263.562 17.5835Z" fill="white" fill-opacity="0.45" mask="url(#path-3-inside-1_15_375)"/>
<path d="M268.363 43.6662C270.451 42.4292 272.862 41.7255 275.341 41.9519C277.659 42.1637 280.068 43.191 282.356 45.4127L282.812 45.8729L282.812 45.8738C285.378 48.553 286.168 51.9595 285.865 55.6483C285.562 59.3458 284.162 63.2987 282.382 67.007C280.604 70.7111 278.46 74.1473 276.689 76.8085C275.803 78.1391 275.013 79.2727 274.408 80.1522C274.106 80.5909 273.848 80.9688 273.649 81.2741C273.553 81.4208 273.468 81.556 273.396 81.6767C273.244 81.6302 273.07 81.5853 272.882 81.5414C272.513 81.4556 272.055 81.3656 271.524 81.2682C270.992 81.1706 270.383 81.0641 269.711 80.947C269.039 80.8296 268.302 80.7006 267.516 80.5568C264.369 79.9816 260.42 79.1691 256.536 77.9111C252.648 76.6517 248.85 74.954 245.989 72.6226C243.135 70.2975 241.229 67.3587 241.062 63.5947C240.911 60.1736 241.827 57.552 243.332 55.6208C244.84 53.6854 246.96 52.4163 249.259 51.7438C251.559 51.071 254.023 51.0005 256.191 51.4471C258.364 51.8949 260.201 52.8532 261.296 54.1995L261.994 53.878C261.707 52.3138 262.225 50.3939 263.378 48.526C264.525 46.6658 266.275 44.9038 268.363 43.6662ZM252.154 53.8981C250.132 54.5014 248.226 55.613 246.845 57.3091C245.46 59.01 244.623 61.2762 244.709 64.1462C244.785 67.406 246.449 69.8908 248.881 71.7833C251.303 73.6685 254.506 74.9843 257.732 75.9308C260.964 76.8786 264.248 77.4647 266.849 77.8745C268.163 78.0814 269.272 78.2387 270.151 78.3804C270.586 78.4505 270.951 78.5149 271.238 78.5759C271.534 78.6389 271.716 78.6925 271.806 78.7338L272.154 78.8937L272.325 78.5517C272.369 78.4642 272.471 78.3039 272.64 78.0603C272.805 77.8231 273.019 77.5253 273.276 77.1718C273.789 76.4665 274.464 75.5454 275.221 74.4662C276.735 72.3077 278.582 69.5062 280.129 66.4864C281.674 63.4713 282.934 60.2124 283.252 57.1436C283.562 54.1613 282.983 51.3267 280.881 49.0923L280.672 48.8775C278.614 46.8001 276.356 45.8526 274.138 45.708C271.926 45.5638 269.783 46.2192 267.942 47.2941C266.101 48.3687 264.544 49.8731 263.5 51.4571C262.699 52.6735 262.181 53.9683 262.099 55.1701C261.084 54.3527 259.722 53.8041 258.228 53.5358C256.329 53.1945 254.175 53.295 252.154 53.8981Z" stroke="white" stroke-opacity="0.45" stroke-width="0.792053"/>
<mask id="path-6-inside-2_15_375" fill="white">
<path d="M276.465 54.094C270.6 47.9791 263.025 55.0666 263.77 59.0525C260.963 55.6835 250.976 56.4809 251.384 64.7401C251.799 74.0289 269.341 75.0153 270.857 75.7486C271.475 74.3675 282.797 60.6993 276.465 54.094Z"/>
</mask>
<path d="M263.77 59.0525L263.161 59.5595L265.107 61.8952L264.549 58.9069L263.77 59.0525ZM251.384 64.7401L252.176 64.7047L252.176 64.701L251.384 64.7401ZM270.857 75.7486L270.512 76.4616L271.247 76.8169L271.58 76.0723L270.857 75.7486ZM277.037 53.5457C275.451 51.8927 273.704 51.091 271.971 50.9395C270.251 50.7891 268.613 51.2849 267.234 52.1046C265.857 52.9229 264.704 54.0824 263.94 55.3203C263.186 56.542 262.755 57.9356 262.991 59.1981L264.549 58.9069C264.412 58.1764 264.648 57.1894 265.288 56.1522C265.918 55.1313 266.886 54.1538 268.043 53.4663C269.198 52.7803 270.507 52.4016 271.833 52.5176C273.147 52.6324 274.546 53.2378 275.893 54.6423L277.037 53.5457ZM264.379 58.5455C263.526 57.5218 262.188 56.8751 260.751 56.5823C259.304 56.2873 257.675 56.3333 256.151 56.775C254.625 57.2173 253.172 58.0669 252.128 59.4063C251.077 60.7547 250.483 62.5448 250.593 64.7792L252.176 64.701C252.082 62.8057 252.583 61.3989 253.377 60.3803C254.179 59.3525 255.322 58.6647 256.592 58.2964C257.865 57.9275 259.234 57.8897 260.435 58.1345C261.648 58.3816 262.611 58.8986 263.161 59.5595L264.379 58.5455ZM250.593 64.7754C250.71 67.3798 252.036 69.3769 253.888 70.8892C255.724 72.3887 258.109 73.443 260.464 74.2062C262.827 74.9721 265.216 75.4618 267.091 75.8046C268.083 75.9859 268.791 76.1019 269.459 76.225C269.768 76.282 270.019 76.332 270.212 76.3772C270.308 76.3998 270.383 76.4196 270.438 76.4366C270.498 76.4548 270.517 76.4641 270.512 76.4616L271.202 75.0356C271.021 74.9479 270.787 74.885 270.574 74.8351C270.343 74.7808 270.062 74.7253 269.746 74.6671C269.162 74.5596 268.248 74.4057 267.376 74.2463C265.523 73.9076 263.215 73.4327 260.952 72.6992C258.68 71.963 256.507 70.9832 254.89 69.6623C253.288 68.3543 252.267 66.7448 252.176 64.7047L250.593 64.7754ZM271.58 76.0723C271.58 76.073 271.583 76.0662 271.592 76.0499C271.6 76.0341 271.612 76.0134 271.627 75.9869C271.659 75.9335 271.701 75.8656 271.756 75.7818C271.865 75.6138 272.01 75.4005 272.188 75.141C272.542 74.6264 273.015 73.9457 273.544 73.1497C274.603 71.5574 275.901 69.4781 276.982 67.2227C278.059 64.9754 278.945 62.5039 279.136 60.1338C279.33 57.7462 278.819 55.4053 277.037 53.5459L275.893 54.6421C277.277 56.0853 277.726 57.9299 277.557 60.006C277.388 62.0996 276.592 64.37 275.553 66.538C274.518 68.6979 273.265 70.7076 272.225 72.2729C271.705 73.0557 271.242 73.721 270.882 74.2441C270.704 74.5033 270.549 74.7318 270.427 74.919C270.315 75.0921 270.201 75.2747 270.134 75.4249L271.58 76.0723Z" fill="white" fill-opacity="0.45" mask="url(#path-6-inside-2_15_375)"/>
<path d="M327.732 5.07538C329.569 3.98727 331.689 3.36786 333.87 3.567C335.909 3.75328 338.029 4.65772 340.042 6.61243L340.443 7.01723L340.443 7.01813C342.7 9.37495 343.395 12.3713 343.129 15.6163C342.862 18.8689 341.63 22.3457 340.064 25.6078C338.5 28.8664 336.614 31.8895 335.056 34.2307C334.277 35.4011 333.582 36.3986 333.05 37.1723C332.784 37.5582 332.557 37.8904 332.382 38.159C332.298 38.288 332.222 38.4065 332.159 38.5126C332.025 38.4718 331.873 38.4321 331.707 38.3935C331.383 38.318 330.979 38.2385 330.512 38.1528C330.045 38.0669 329.508 37.974 328.917 37.8709C328.326 37.7677 327.678 37.6539 326.987 37.5275C324.218 37.0215 320.745 36.307 317.328 35.2004C313.908 34.0925 310.567 32.599 308.049 30.5479C305.617 28.5665 303.968 26.0785 303.733 22.9146L303.715 22.6063C303.582 19.5968 304.388 17.2905 305.712 15.5916C307.038 13.889 308.904 12.7728 310.927 12.1813C312.95 11.5895 315.117 11.5269 317.024 11.9197C318.936 12.3136 320.553 13.1571 321.516 14.3415L322.128 14.0593C321.876 12.6833 322.332 10.994 323.346 9.35074C324.356 7.71437 325.895 6.16414 327.732 5.07538ZM313.473 14.0763C311.694 14.607 310.017 15.5852 308.803 17.0772C307.66 18.4804 306.941 20.3207 306.919 22.6265L306.923 23.0915C306.99 25.959 308.455 28.1447 310.594 29.8094C312.724 31.4679 315.542 32.6257 318.381 33.4583C321.223 34.2921 324.113 34.8078 326.401 35.1683C327.556 35.3503 328.532 35.4893 329.305 35.614C329.688 35.6757 330.009 35.7319 330.261 35.7855C330.521 35.8409 330.681 35.8884 330.76 35.9247L331.066 36.0654L331.217 35.7637C331.256 35.6868 331.346 35.5462 331.494 35.332C331.639 35.1234 331.827 34.8614 332.053 34.5504C332.504 33.9299 333.099 33.1193 333.765 32.1698C335.097 30.2711 336.722 27.8067 338.083 25.1505C339.442 22.4981 340.55 19.6311 340.83 16.9315C341.102 14.3079 340.593 11.8145 338.743 9.84881L338.56 9.66019C336.749 7.83257 334.763 6.9994 332.812 6.87217C330.866 6.74539 328.981 7.3215 327.361 8.26714C325.742 9.21244 324.372 10.5353 323.454 11.9287C322.749 12.9987 322.294 14.1381 322.221 15.1954C321.328 14.4763 320.13 13.9932 318.816 13.7572C317.145 13.4571 315.251 13.5459 313.473 14.0763Z" stroke="white" stroke-opacity="0.45" stroke-width="0.696761"/>
<mask id="path-9-inside-3_15_375" fill="white">
<path d="M334.859 14.2494C329.7 8.87022 323.036 15.105 323.692 18.6113C321.222 15.6477 312.437 16.3491 312.796 23.6147C313.161 31.786 328.592 32.6537 329.926 33.2988C330.47 32.0838 340.429 20.06 334.859 14.2494Z"/>
</mask>
<path d="M323.692 18.6113L323.156 19.0573L324.868 21.112L324.376 18.4833L323.692 18.6113ZM312.796 23.6147L313.492 23.5836L313.492 23.5803L312.796 23.6147ZM329.926 33.2988L329.623 33.926L330.269 34.2385L330.562 33.5835L329.926 33.2988ZM335.362 13.7671C333.967 12.313 332.431 11.6077 330.906 11.4744C329.392 11.3421 327.952 11.7783 326.739 12.4993C325.527 13.2192 324.513 14.2393 323.841 15.3282C323.178 16.4029 322.799 17.6289 323.007 18.7394L324.376 18.4833C324.256 17.8407 324.464 16.9724 325.027 16.06C325.581 15.1619 326.433 14.302 327.451 13.6973C328.466 13.0938 329.618 12.7607 330.785 12.8626C331.94 12.9637 333.171 13.4963 334.356 14.7317L335.362 13.7671ZM324.227 18.1654C323.477 17.2649 322.3 16.6959 321.036 16.4384C319.762 16.1788 318.33 16.2193 316.989 16.6078C315.647 16.997 314.369 17.7444 313.45 18.9226C312.525 20.1088 312.003 21.6835 312.1 23.6491L313.492 23.5803C313.41 21.913 313.851 20.6755 314.549 19.7794C315.254 18.8752 316.26 18.2702 317.377 17.9463C318.497 17.6217 319.701 17.5884 320.758 17.8038C321.824 18.0212 322.672 18.476 323.156 19.0573L324.227 18.1654ZM312.1 23.6458C312.202 25.9368 313.37 27.6937 314.998 29.024C316.613 30.3431 318.711 31.2705 320.783 31.9419C322.862 32.6156 324.963 33.0465 326.613 33.348C327.486 33.5075 328.108 33.6096 328.696 33.7178C328.968 33.768 329.189 33.812 329.358 33.8518C329.443 33.8716 329.508 33.889 329.558 33.9039C329.61 33.92 329.627 33.9282 329.623 33.926L330.229 32.6715C330.07 32.5944 329.864 32.5391 329.677 32.4952C329.474 32.4474 329.226 32.3986 328.948 32.3474C328.435 32.2528 327.631 32.1174 326.863 31.9772C325.233 31.6792 323.204 31.2615 321.213 30.6162C319.214 29.9686 317.303 29.1067 315.88 27.9447C314.471 26.794 313.572 25.3782 313.492 23.5836L312.1 23.6458ZM330.562 33.5835C330.562 33.5842 330.564 33.5781 330.572 33.5638C330.579 33.5499 330.59 33.5317 330.604 33.5084C330.631 33.4614 330.669 33.4017 330.717 33.328C330.813 33.1801 330.94 32.9926 331.097 32.7643C331.408 32.3116 331.824 31.7128 332.29 31.0126C333.221 29.6118 334.363 27.7827 335.314 25.7986C336.261 23.8217 337.04 21.6475 337.209 19.5626C337.379 17.4622 336.93 15.403 335.362 13.7672L334.356 14.7316C335.573 16.0011 335.968 17.6239 335.82 19.4502C335.671 21.2919 334.971 23.2891 334.057 25.1963C333.146 27.0964 332.045 28.8642 331.129 30.2412C330.672 30.9298 330.264 31.5151 329.948 31.9752C329.792 32.2033 329.655 32.4043 329.548 32.5689C329.449 32.7213 329.349 32.8819 329.29 33.014L330.562 33.5835Z" fill="white" fill-opacity="0.45" mask="url(#path-9-inside-3_15_375)"/>
<path d="M320.802 66.928C322.843 65.7186 325.2 65.0309 327.624 65.2523C329.89 65.4593 332.245 66.464 334.483 68.6363L334.928 69.0868L334.929 69.0864C337.438 71.7059 338.21 75.0369 337.915 78.6436C337.618 82.2587 336.249 86.1232 334.508 89.7489C332.77 93.3707 330.673 96.7304 328.941 99.3325C328.076 100.633 327.304 101.742 326.712 102.602C326.416 103.031 326.165 103.401 325.97 103.699C325.876 103.842 325.792 103.974 325.722 104.092C325.574 104.046 325.404 104.003 325.22 103.96C324.86 103.876 324.411 103.787 323.892 103.692C323.372 103.597 322.775 103.493 322.119 103.379C321.461 103.264 320.742 103.138 319.973 102.997C316.896 102.435 313.036 101.641 309.238 100.411C305.436 99.1796 301.723 97.519 298.925 95.2394C296.134 92.9661 294.272 90.092 294.108 86.4118L294.107 86.4113C293.96 83.0671 294.857 80.5043 296.328 78.6164C297.802 76.7241 299.875 75.4836 302.123 74.8261C304.372 74.1683 306.781 74.0989 308.9 74.5356C311.025 74.9733 312.822 75.9107 313.892 77.227L314.573 76.9132C314.293 75.3839 314.801 73.5065 315.927 71.6801C317.05 69.8614 318.759 68.1381 320.802 66.928ZM304.953 76.9326C302.976 77.5225 301.112 78.6094 299.762 80.2678C298.409 81.9309 297.59 84.146 297.674 86.9521C297.748 90.1393 299.376 92.5695 301.753 94.4197C304.121 96.263 307.254 97.5491 310.408 98.4745C313.568 99.4013 316.779 99.9742 319.322 100.375C320.606 100.577 321.691 100.731 322.551 100.87C322.976 100.938 323.332 101.001 323.612 101.061C323.901 101.123 324.08 101.174 324.167 101.215L324.508 101.371L324.675 101.037C324.718 100.952 324.818 100.795 324.983 100.557C325.144 100.325 325.354 100.033 325.605 99.6878C326.106 98.9982 326.768 98.0979 327.508 97.0426C328.988 94.9322 330.793 92.1925 332.305 89.2401C333.816 86.2921 335.049 83.1061 335.36 80.1056C335.662 77.1895 335.096 74.4178 333.04 72.233L332.836 72.0234C330.824 69.9924 328.617 69.0661 326.448 68.9247C324.285 68.7837 322.19 69.4246 320.39 70.4756C318.59 71.5263 317.068 72.9968 316.048 74.5455C315.264 75.7347 314.757 77.0005 314.676 78.1755C313.684 77.3764 312.352 76.8403 310.892 76.578C309.035 76.2444 306.929 76.343 304.953 76.9326Z" stroke="white" stroke-opacity="0.45" stroke-width="0.774412"/>
<mask id="path-12-inside-4_15_375" fill="white">
<path d="M328.723 77.1238C322.988 71.1451 315.582 78.0748 316.311 81.9719C313.567 78.6779 303.802 79.4575 304.201 87.5328C304.607 96.6147 321.758 97.5792 323.24 98.2961C323.845 96.9458 334.914 83.582 328.723 77.1238Z"/>
</mask>
<path d="M316.311 81.9719L315.716 82.4675L317.618 84.7512L317.072 81.8295L316.311 81.9719ZM304.201 87.5328L304.975 87.4982L304.975 87.4945L304.201 87.5328ZM323.24 98.2961L322.903 98.9933L323.621 99.3406L323.947 98.6126L323.24 98.2961ZM329.282 76.5877C327.732 74.9715 326.024 74.1877 324.329 74.0395C322.647 73.8925 321.046 74.3772 319.698 75.1787C318.351 75.9788 317.224 77.1125 316.477 78.3228C315.74 79.5173 315.319 80.8799 315.55 82.1142L317.072 81.8295C316.938 81.1153 317.17 80.1502 317.795 79.1362C318.411 78.138 319.358 77.1822 320.489 76.5101C321.618 75.8393 322.898 75.4691 324.194 75.5825C325.479 75.6947 326.847 76.2867 328.164 77.6599L329.282 76.5877ZM316.906 81.4762C316.072 80.4753 314.764 79.843 313.359 79.5567C311.944 79.2682 310.351 79.3132 308.862 79.7451C307.369 80.1776 305.949 81.0083 304.928 82.3178C303.9 83.6362 303.32 85.3864 303.428 87.571L304.975 87.4945C304.883 85.6415 305.373 84.2661 306.15 83.2701C306.933 82.2652 308.051 81.5927 309.293 81.2327C310.537 80.8719 311.876 80.8349 313.05 81.0743C314.236 81.316 315.178 81.8214 315.716 82.4675L316.906 81.4762ZM303.427 87.5673C303.541 90.1137 304.838 92.0664 306.649 93.545C308.444 95.011 310.776 96.0418 313.078 96.788C315.389 97.5369 317.724 98.0157 319.558 98.3508C320.528 98.5281 321.22 98.6416 321.873 98.7619C322.175 98.8177 322.421 98.8665 322.609 98.9108C322.703 98.9328 322.776 98.9522 322.831 98.9688C322.889 98.9866 322.908 98.9957 322.903 98.9933L323.577 97.599C323.4 97.5133 323.171 97.4518 322.964 97.403C322.738 97.3499 322.462 97.2956 322.153 97.2387C321.583 97.1336 320.689 96.9831 319.836 96.8273C318.025 96.4961 315.769 96.0318 313.556 95.3146C311.335 94.5949 309.21 93.6369 307.629 92.3454C306.063 91.0665 305.064 89.4929 304.975 87.4982L303.427 87.5673ZM323.947 98.6126C323.947 98.6133 323.95 98.6066 323.958 98.5907C323.966 98.5753 323.978 98.555 323.993 98.5291C324.024 98.4769 324.066 98.4105 324.119 98.3286C324.225 98.1643 324.367 97.9558 324.542 97.702C324.887 97.1989 325.35 96.5334 325.867 95.7551C326.902 94.1982 328.171 92.1653 329.228 89.9601C330.281 87.7629 331.147 85.3464 331.335 83.0291C331.524 80.6946 331.025 78.4059 329.282 76.5879L328.164 77.6597C329.517 79.0707 329.956 80.8743 329.791 82.9041C329.626 84.9511 328.847 87.1709 327.831 89.2907C326.819 91.4025 325.595 93.3674 324.577 94.8978C324.069 95.6632 323.616 96.3137 323.265 96.8251C323.091 97.0786 322.939 97.302 322.82 97.485C322.71 97.6543 322.599 97.8328 322.533 97.9797L323.947 98.6126Z" fill="white" fill-opacity="0.45" mask="url(#path-12-inside-4_15_375)"/>
<path d="M384.732 36.0754C386.569 34.9873 388.689 34.3679 390.87 34.567C392.909 34.7533 395.029 35.6577 397.042 37.6124L397.443 38.0172L397.443 38.0181C399.7 40.3749 400.395 43.3713 400.129 46.6163C399.862 49.8689 398.63 53.3457 397.064 56.6078C395.5 59.8664 393.614 62.8895 392.056 65.2307C391.277 66.4011 390.582 67.3986 390.05 68.1723C389.784 68.5582 389.557 68.8904 389.382 69.159C389.298 69.288 389.222 69.4065 389.159 69.5126C389.025 69.4718 388.873 69.4321 388.707 69.3935C388.383 69.318 387.979 69.2385 387.512 69.1528C387.045 69.0669 386.508 68.974 385.917 68.8709C385.326 68.7677 384.678 68.6539 383.987 68.5275C381.218 68.0215 377.745 67.307 374.328 66.2004C370.908 65.0925 367.567 63.599 365.049 61.5479C362.617 59.5665 360.968 57.0785 360.733 53.9146L360.715 53.6063C360.582 50.5968 361.388 48.2905 362.712 46.5916C364.038 44.889 365.904 43.7728 367.927 43.1813C369.95 42.5895 372.117 42.5269 374.024 42.9197C375.936 43.3136 377.553 44.1571 378.516 45.3415L379.128 45.0593C378.876 43.6833 379.332 41.994 380.346 40.3507C381.356 38.7144 382.895 37.1641 384.732 36.0754ZM370.473 45.0763C368.694 45.607 367.017 46.5852 365.803 48.0772C364.66 49.4804 363.941 51.3207 363.919 53.6265L363.923 54.0915C363.99 56.959 365.455 59.1447 367.594 60.8094C369.724 62.4679 372.542 63.6257 375.381 64.4583C378.223 65.2921 381.113 65.8078 383.401 66.1683C384.556 66.3503 385.532 66.4893 386.305 66.614C386.688 66.6757 387.009 66.7319 387.261 66.7855C387.521 66.8409 387.681 66.8884 387.76 66.9247L388.066 67.0654L388.217 66.7637C388.256 66.6868 388.346 66.5462 388.494 66.332C388.639 66.1234 388.827 65.8614 389.053 65.5504C389.504 64.9299 390.099 64.1193 390.765 63.1698C392.097 61.2711 393.722 58.8067 395.083 56.1505C396.442 53.4981 397.55 50.6311 397.83 47.9315C398.102 45.3079 397.593 42.8145 395.743 40.8488L395.56 40.6602C393.749 38.8326 391.763 37.9994 389.812 37.8722C387.866 37.7454 385.981 38.3215 384.361 39.2671C382.742 40.2124 381.372 41.5353 380.454 42.9287C379.749 43.9987 379.294 45.1381 379.221 46.1954C378.328 45.4763 377.13 44.9932 375.816 44.7572C374.145 44.4571 372.251 44.5459 370.473 45.0763Z" stroke="white" stroke-opacity="0.45" stroke-width="0.696761"/>
<mask id="path-15-inside-5_15_375" fill="white">
<path d="M391.859 45.2494C386.7 39.8702 380.036 46.105 380.692 49.6113C378.222 46.6477 369.437 47.3491 369.796 54.6147C370.161 62.786 385.592 63.6537 386.926 64.2988C387.47 63.0838 397.429 51.06 391.859 45.2494Z"/>
</mask>
<path d="M380.692 49.6113L380.156 50.0573L381.868 52.112L381.376 49.4833L380.692 49.6113ZM369.796 54.6147L370.492 54.5836L370.492 54.5803L369.796 54.6147ZM386.926 64.2988L386.623 64.926L387.269 65.2385L387.562 64.5835L386.926 64.2988ZM392.362 44.7671C390.967 43.313 389.431 42.6077 387.906 42.4744C386.392 42.3421 384.952 42.7783 383.739 43.4993C382.527 44.2192 381.513 45.2393 380.841 46.3282C380.178 47.4029 379.799 48.6289 380.007 49.7394L381.376 49.4833C381.256 48.8407 381.464 47.9724 382.027 47.06C382.581 46.1619 383.433 45.302 384.451 44.6973C385.466 44.0938 386.618 43.7607 387.785 43.8626C388.94 43.9637 390.171 44.4963 391.356 45.7317L392.362 44.7671ZM381.227 49.1654C380.477 48.2649 379.3 47.6959 378.036 47.4384C376.762 47.1788 375.33 47.2193 373.989 47.6078C372.647 47.997 371.369 48.7444 370.45 49.9226C369.525 51.1088 369.003 52.6835 369.1 54.6491L370.492 54.5803C370.41 52.913 370.851 51.6755 371.549 50.7794C372.254 49.8752 373.26 49.2702 374.377 48.9463C375.497 48.6217 376.701 48.5884 377.758 48.8038C378.824 49.0212 379.672 49.476 380.156 50.0573L381.227 49.1654ZM369.1 54.6458C369.202 56.9368 370.37 58.6937 371.998 60.024C373.613 61.3431 375.711 62.2705 377.783 62.9419C379.862 63.6156 381.963 64.0465 383.613 64.348C384.486 64.5075 385.108 64.6096 385.696 64.7178C385.968 64.768 386.189 64.812 386.358 64.8518C386.443 64.8716 386.508 64.889 386.558 64.9039C386.61 64.92 386.627 64.9282 386.623 64.926L387.229 63.6715C387.07 63.5944 386.864 63.5391 386.677 63.4952C386.474 63.4474 386.226 63.3986 385.948 63.3474C385.435 63.2528 384.631 63.1174 383.863 62.9772C382.233 62.6792 380.204 62.2615 378.213 61.6162C376.214 60.9686 374.303 60.1067 372.88 58.9447C371.471 57.794 370.572 56.3782 370.492 54.5836L369.1 54.6458ZM387.562 64.5835C387.562 64.5842 387.564 64.5781 387.572 64.5638C387.579 64.5499 387.59 64.5317 387.604 64.5084C387.631 64.4614 387.669 64.4017 387.717 64.328C387.813 64.1801 387.94 63.9926 388.097 63.7643C388.408 63.3116 388.824 62.7128 389.29 62.0126C390.221 60.6118 391.363 58.7827 392.314 56.7986C393.261 54.8217 394.04 52.6475 394.209 50.5626C394.379 48.4622 393.93 46.403 392.362 44.7672L391.356 45.7316C392.573 47.0011 392.968 48.6239 392.82 50.4502C392.671 52.2919 391.971 54.2891 391.057 56.1963C390.146 58.0964 389.045 59.8642 388.129 61.2412C387.672 61.9298 387.264 62.5151 386.948 62.9752C386.792 63.2033 386.655 63.4043 386.548 63.5689C386.449 63.7213 386.349 63.8819 386.29 64.014L387.562 64.5835Z" fill="white" fill-opacity="0.45" mask="url(#path-15-inside-5_15_375)"/>
<path d="M383.982 97.4384C386.11 96.1775 388.569 95.4602 391.095 95.691C393.458 95.907 395.913 96.9549 398.246 99.2197L398.711 99.6884L398.711 99.6893C401.327 102.42 402.132 105.892 401.823 109.652C401.514 113.421 400.086 117.451 398.272 121.231C396.46 125.007 394.274 128.509 392.469 131.222C391.566 132.578 390.761 133.734 390.144 134.631C389.836 135.078 389.573 135.463 389.37 135.774C389.273 135.924 389.185 136.061 389.112 136.184C388.958 136.137 388.781 136.091 388.589 136.046C388.213 135.959 387.745 135.867 387.204 135.768C386.662 135.668 386.041 135.56 385.356 135.44C384.67 135.321 383.92 135.189 383.118 135.043C379.911 134.456 375.886 133.628 371.926 132.346C367.962 131.062 364.092 129.332 361.175 126.955C358.357 124.659 356.445 121.776 356.174 118.109L356.153 117.752C355.999 114.265 356.932 111.593 358.466 109.624C360.003 107.651 362.166 106.358 364.509 105.672C366.854 104.987 369.364 104.914 371.574 105.369C373.79 105.826 375.663 106.803 376.779 108.176L377.489 107.848C377.196 106.254 377.726 104.297 378.901 102.393C380.071 100.497 381.853 98.7 383.982 97.4384ZM367.459 107.868C365.398 108.483 363.455 109.617 362.048 111.346C360.636 113.08 359.782 115.389 359.87 118.315C359.948 121.638 361.645 124.171 364.123 126.1C366.592 128.021 369.858 129.363 373.147 130.328C376.44 131.294 379.788 131.891 382.44 132.309C383.778 132.52 384.909 132.681 385.805 132.825C386.249 132.897 386.62 132.962 386.912 133.024C387.214 133.088 387.4 133.143 387.491 133.185L387.846 133.348L388.021 132.999C388.066 132.909 388.17 132.746 388.342 132.498C388.51 132.257 388.728 131.953 388.99 131.593C389.513 130.874 390.202 129.935 390.973 128.834C392.517 126.634 394.399 123.778 395.976 120.7C397.551 117.627 398.836 114.305 399.16 111.177C399.476 108.137 398.885 105.247 396.742 102.97L396.53 102.751C394.432 100.633 392.131 99.667 389.869 99.5195C387.614 99.3726 385.429 100.041 383.552 101.137C381.676 102.232 380.089 103.765 379.025 105.38C378.208 106.619 377.681 107.939 377.596 109.165C376.562 108.331 375.173 107.772 373.651 107.498C371.715 107.151 369.519 107.253 367.459 107.868Z" stroke="white" stroke-opacity="0.45" stroke-width="0.807378"/>
<mask id="path-18-inside-6_15_375" fill="white">
<path d="M392.241 108.068C386.262 101.835 378.54 109.06 379.3 113.123C376.439 109.688 366.259 110.501 366.675 118.92C367.098 128.389 384.979 129.394 386.525 130.142C387.155 128.734 398.695 114.801 392.241 108.068Z"/>
</mask>
<path d="M379.3 113.123L378.68 113.639L380.664 116.02L380.094 112.974L379.3 113.123ZM366.675 118.92L367.482 118.884L367.481 118.88L366.675 118.92ZM386.525 130.142L386.173 130.869L386.922 131.231L387.261 130.472L386.525 130.142ZM392.824 107.509C391.207 105.824 389.427 105.007 387.66 104.853C385.906 104.699 384.237 105.205 382.831 106.04C381.427 106.874 380.253 108.056 379.474 109.318C378.705 110.564 378.266 111.984 378.507 113.271L380.094 112.974C379.955 112.23 380.196 111.223 380.848 110.166C381.49 109.125 382.477 108.129 383.656 107.428C384.833 106.729 386.168 106.343 387.52 106.461C388.858 106.578 390.285 107.195 391.658 108.627L392.824 107.509ZM379.921 112.606C379.051 111.562 377.688 110.903 376.223 110.605C374.747 110.304 373.087 110.351 371.534 110.801C369.978 111.252 368.498 112.118 367.433 113.483C366.362 114.858 365.756 116.682 365.869 118.96L367.481 118.88C367.386 116.948 367.897 115.514 368.707 114.476C369.523 113.428 370.689 112.727 371.984 112.352C373.281 111.976 374.676 111.937 375.901 112.187C377.137 112.439 378.119 112.966 378.68 113.639L379.921 112.606ZM365.868 118.956C365.987 121.611 367.34 123.647 369.227 125.188C371.098 126.717 373.529 127.791 375.93 128.569C378.339 129.35 380.774 129.849 382.685 130.199C383.697 130.384 384.418 130.502 385.099 130.627C385.415 130.685 385.671 130.736 385.867 130.783C385.965 130.806 386.041 130.826 386.098 130.843C386.159 130.862 386.178 130.871 386.173 130.869L386.876 129.415C386.691 129.326 386.453 129.261 386.236 129.211C386.001 129.155 385.714 129.099 385.392 129.039C384.797 128.93 383.865 128.773 382.976 128.61C381.087 128.265 378.735 127.781 376.428 127.033C374.112 126.283 371.897 125.284 370.248 123.938C368.616 122.604 367.575 120.964 367.482 118.884L365.868 118.956ZM387.261 130.472C387.261 130.472 387.264 130.465 387.273 130.449C387.282 130.433 387.294 130.412 387.31 130.385C387.342 130.33 387.385 130.261 387.441 130.176C387.552 130.004 387.7 129.787 387.881 129.522C388.242 128.998 388.724 128.304 389.264 127.493C390.343 125.869 391.666 123.75 392.768 121.451C393.865 119.16 394.768 116.641 394.964 114.225C395.161 111.791 394.641 109.405 392.824 107.509L391.658 108.627C393.068 110.098 393.526 111.978 393.355 114.095C393.182 116.229 392.371 118.543 391.311 120.753C390.256 122.955 388.979 125.003 387.919 126.599C387.388 127.397 386.917 128.075 386.55 128.608C386.369 128.872 386.21 129.105 386.086 129.296C385.972 129.473 385.856 129.659 385.788 129.812L387.261 130.472Z" fill="white" fill-opacity="0.45" mask="url(#path-18-inside-6_15_375)"/>
</g>
<defs>
<clipPath id="clip0_15_375">
<rect width="390" height="844" rx="34" fill="white"/>
</clipPath>
</defs>
</svg>
