<svg width="126" height="106" viewBox="0 0 126 106" fill="none" xmlns="http://www.w3.org/2000/svg">
<path d="M33.8884 31.7958C22.0339 35.0488 14.8035 46.7731 16.8951 54.7784C18.9909 62.7858 26.9038 53.6654 38.7584 50.4104C50.6088 47.1532 61.9089 51.0005 59.8173 42.9931C57.7236 34.9858 45.743 28.5387 33.8884 31.7958ZM24.7135 28.0641C28.2856 26.7369 28.7413 18.7883 26.8387 13.4291C24.9361 8.07407 20.4966 4.81275 16.9245 6.14416C13.3545 7.47767 12.0021 12.8999 13.9047 18.2549C15.8073 23.6121 21.1392 29.3976 24.7135 28.0641ZM39.2876 23.9292C43.0739 23.589 45.5183 16.0352 45.0332 10.3526C44.5502 4.67415 41.0873 0.350221 37.301 0.684123C33.5146 1.02643 30.835 5.90476 31.3201 11.5832C31.8073 17.2616 35.4971 24.2694 39.2876 23.9292ZM56.0247 7.30967C52.2258 7.30967 49.1471 11.9297 49.1471 17.6291C49.1471 23.3328 52.2279 30.6387 56.0247 30.6387C59.8257 30.6387 62.9043 23.3328 62.9043 17.6291C62.9064 11.9276 59.8257 7.30967 56.0247 7.30967ZM2.76832 21.9321C-0.5245 23.8767 -0.940304 29.4585 1.84642 34.3978C4.62683 39.3328 10.8618 44.083 14.1525 42.1363C17.4453 40.1896 16.5486 32.2809 13.7661 27.3459C10.9836 22.4067 6.05694 19.9854 2.76832 21.9321ZM92.1176 79.4767C80.2631 76.2195 68.2783 82.6687 66.1867 90.6739C64.0908 98.6813 75.3952 94.8341 87.2477 98.0912C99.1023 101.346 107.013 110.467 109.105 102.459C111.2 94.454 103.968 82.7317 92.1176 79.4767ZM101.293 75.7512C104.861 77.0785 110.197 71.2929 112.099 65.9358C114.002 60.5786 112.649 55.1564 109.079 53.825C105.507 52.4915 101.072 55.7549 99.1695 61.112C97.2669 66.4692 97.7205 74.4177 101.293 75.7512ZM86.7206 71.6079C90.5069 71.9481 94.1988 64.9425 94.6818 59.264C95.1648 53.5856 92.4914 48.7052 88.7051 48.365C84.9188 48.0289 81.458 52.355 80.9687 58.0355C80.4857 63.7161 82.9343 71.2677 86.7206 71.6079ZM69.9772 78.3196C73.7803 78.3196 76.8589 71.0136 76.8589 65.31C76.8589 59.6105 73.7782 54.9905 69.9772 54.9905C66.1762 54.9905 63.0954 59.6105 63.0954 65.3142C63.0954 71.0136 66.1804 78.3196 69.9772 78.3196ZM123.236 69.6129C119.943 67.6662 115.02 70.0875 112.24 75.0246C109.462 79.9618 108.563 87.8704 111.849 89.8171C115.142 91.7638 121.377 87.0136 124.158 82.0786C126.938 77.1414 126.524 71.5596 123.236 69.6129Z" fill="#F1FAFB"/>
</svg>
