<svg width="26" height="21" viewBox="0 0 26 21" fill="none" xmlns="http://www.w3.org/2000/svg">
<path d="M7.50995 6.28634C5.17257 6.92773 3.74695 9.23944 4.15936 10.8178C4.57259 12.3967 6.13278 10.5984 8.47016 9.95659C10.8067 9.31438 13.0348 10.0729 12.6224 8.49412C12.2096 6.9153 9.84733 5.64413 7.50995 6.28634ZM5.70091 5.55055C6.40523 5.28887 6.49508 3.72164 6.11994 2.66495C5.7448 1.60909 4.86947 0.966055 4.16515 1.22857C3.46125 1.4915 3.19459 2.56061 3.56973 3.61647C3.94487 4.67274 4.99618 5.81348 5.70091 5.55055ZM8.57451 4.73526C9.32106 4.66819 9.80303 3.1788 9.70738 2.05835C9.61215 0.938727 8.92936 0.0861718 8.1828 0.152008C7.43625 0.2195 6.9079 1.18137 7.00355 2.30099C7.09961 3.42062 7.82712 4.80234 8.57451 4.73526ZM11.8746 1.45837C11.1255 1.45837 10.5185 2.36931 10.5185 3.49308C10.5185 4.61767 11.126 6.0582 11.8746 6.0582C12.624 6.0582 13.2311 4.61767 13.2311 3.49308C13.2315 2.3689 12.624 1.45837 11.8746 1.45837ZM1.37396 4.34149C0.724709 4.72491 0.642724 5.82549 1.19219 6.79937C1.7404 7.77241 2.96976 8.70902 3.61859 8.32519C4.26784 7.94135 4.09104 6.38199 3.5424 5.40894C2.99377 4.43507 2.02238 3.95766 1.37396 4.34149ZM18.9911 15.6876C16.6537 15.0454 14.2906 16.317 13.8782 17.8954C13.465 19.4742 15.6939 18.7157 18.0309 19.3579C20.3682 19.9997 21.928 21.798 22.3404 20.2191C22.7537 18.6407 21.3276 16.3294 18.9911 15.6876ZM20.8001 14.9531C21.5036 15.2148 22.5557 14.074 22.9309 13.0178C23.306 11.9615 23.0394 10.8924 22.3355 10.6299C21.6311 10.3669 20.7566 11.0104 20.3815 12.0667C20.0064 13.1229 20.0958 14.6902 20.8001 14.9531ZM17.9269 14.1361C18.6735 14.2032 19.4014 12.8219 19.4966 11.7023C19.5919 10.5827 19.0648 9.62037 18.3182 9.5533C17.5717 9.48705 16.8893 10.34 16.7928 11.4601C16.6976 12.5801 17.1804 14.0691 17.9269 14.1361ZM14.6256 15.4595C15.3755 15.4595 15.9825 14.019 15.9825 12.8944C15.9825 11.7706 15.3751 10.8597 14.6256 10.8597C13.8762 10.8597 13.2687 11.7706 13.2687 12.8952C13.2687 14.019 13.877 15.4595 14.6256 15.4595ZM25.1267 13.7428C24.4774 13.3589 23.5068 13.8364 22.9586 14.8098C22.4108 15.7833 22.2336 17.3426 22.8816 17.7265C23.5309 18.1103 24.7602 17.1737 25.3084 16.2007C25.8566 15.2272 25.7751 14.1266 25.1267 13.7428Z" fill="white"/>
</svg>
