<svg width="230" height="192" viewBox="0 0 230 192" fill="none" xmlns="http://www.w3.org/2000/svg">
<path d="M61.8598 56.8243C40.2205 62.7621 27.0223 84.1638 30.8403 98.7766C34.666 113.393 49.1101 96.7449 70.7494 90.8032C92.3811 84.8576 113.008 91.8803 109.19 77.2637C105.368 62.6472 83.4992 50.8787 61.8598 56.8243ZM45.1119 50.0124C51.6324 47.5897 52.4643 33.0804 48.9912 23.2977C45.5182 13.5226 37.4145 7.56944 30.894 9.99979C24.3773 12.434 21.9086 22.3317 25.3816 32.1068C28.8546 41.8857 38.5875 52.4466 45.1119 50.0124ZM71.7154 42.4645C78.627 41.8435 83.089 28.0549 82.2035 17.6818C81.3218 7.31644 75.0006 -0.576451 68.0891 0.0330529C61.1775 0.65789 56.2861 9.56279 57.1716 19.9282C58.061 30.2936 64.7962 43.0855 71.7154 42.4645ZM102.267 12.1273C95.3327 12.1273 89.713 20.5607 89.713 30.9644C89.713 41.3758 95.3366 54.7121 102.267 54.7121C109.206 54.7121 114.825 41.3758 114.825 30.9644C114.829 20.5569 109.206 12.1273 102.267 12.1273ZM5.05329 38.819C-0.957421 42.3687 -1.71643 52.5577 3.37044 61.5738C8.44581 70.5822 19.8271 79.2533 25.8339 75.6997C31.8446 72.1462 30.2078 57.7098 25.1286 48.7014C20.0494 39.6853 11.0563 35.2655 5.05329 38.819ZM168.151 143.861C146.512 137.915 124.635 149.687 120.817 164.3C116.991 178.917 137.626 171.894 159.262 177.84C180.901 183.781 195.341 200.43 199.159 185.813C202.985 171.2 189.783 149.802 168.151 143.861ZM184.899 137.06C191.412 139.483 201.153 128.922 204.626 119.143C208.099 109.364 205.63 99.4666 199.113 97.0362C192.593 94.602 184.497 100.559 181.024 110.338C177.551 120.117 178.379 134.626 184.899 137.06ZM158.299 129.497C165.211 130.118 171.95 117.33 172.832 106.965C173.713 96.5992 168.834 87.6905 161.922 87.0695C155.01 86.4561 148.693 94.3529 147.8 104.722C146.918 115.091 151.388 128.876 158.299 129.497ZM127.736 141.749C134.678 141.749 140.298 128.412 140.298 118.001C140.298 107.597 134.674 99.1637 127.736 99.1637C120.798 99.1637 115.174 107.597 115.174 118.009C115.174 128.412 120.805 141.749 127.736 141.749ZM224.954 125.855C218.943 122.302 209.958 126.722 204.882 135.734C199.811 144.746 198.17 159.183 204.169 162.736C210.18 166.29 221.561 157.619 226.637 148.61C231.712 139.598 230.957 129.409 224.954 125.855Z" fill="#F1FAFB"/>
</svg>
